<?xml version="1.0" encoding="UTF-8" standalone="no"?>
<svg
   xmlns:dc="http://purl.org/dc/elements/1.1/"
   xmlns:cc="http://creativecommons.org/ns#"
   xmlns:rdf="http://www.w3.org/1999/02/22-rdf-syntax-ns#"
   xmlns:svg="http://www.w3.org/2000/svg"
   xmlns="http://www.w3.org/2000/svg"
   xmlns:sodipodi="http://sodipodi.sourceforge.net/DTD/sodipodi-0.dtd"
   xmlns:inkscape="http://www.inkscape.org/namespaces/inkscape"
   inkscape:version="1.0 (4035a4fb49, 2020-05-01)"
   sodipodi:docname="full_final.svg"
   id="svg18"
   version="1.1"
   fill="none"
   height="45"
   width="130">
  <metadata
     id="metadata24">
    <rdf:RDF>
      <cc:Work
         rdf:about="">
        <dc:format>image/svg+xml</dc:format>
        <dc:type
           rdf:resource="http://purl.org/dc/dcmitype/StillImage" />
        <dc:title></dc:title>
      </cc:Work>
    </rdf:RDF>
  </metadata>
  <defs
     id="defs22" />
  <sodipodi:namedview
     inkscape:current-layer="svg18"
     inkscape:window-maximized="0"
     inkscape:window-y="39"
     inkscape:window-x="12"
     inkscape:cy="13.292601"
     inkscape:cx="117.52533"
     inkscape:zoom="5.8387999"
     inkscape:guide-bbox="true"
     showguides="true"
     showgrid="false"
     id="namedview20"
     inkscape:window-height="849"
     inkscape:window-width="1576"
     inkscape:pageshadow="2"
     inkscape:pageopacity="0"
     guidetolerance="10"
     gridtolerance="10"
     objecttolerance="10"
     borderopacity="1"
     bordercolor="#666666"
     pagecolor="#ffffff">
    <sodipodi:guide
       id="guide59"
       orientation="0,-1"
       position="45.37,15.688" />
  </sodipodi:namedview>
  <path
     id="path10"
     fill="#1683C6"
     d="M97.148 44.547c12.333 0 22.331-9.972 22.331-22.273C119.479 9.972 109.481 0 97.149 0 84.814 0 74.816 9.972 74.816 22.274c0 12.301 9.998 22.273 22.331 22.273z" />
  <path
     style="fill:#ffffff"
     id="path69"
     d="m 52.703,18.244 c 0,0.059 0,0.098 0.02,0.137 0.04,0.099 0.099,0.138 0.178,0.118 0.137,-0.059 0.275,-0.118 0.433,-0.177 0.138,-0.059 0.296,-0.098 0.453,-0.157 a 7.96,7.96 0 0 1 0.868,-0.216 c 0.315,-0.06 0.65,-0.099 0.965,-0.099 v 2.104 c -0.374,0.04 -0.71,0.079 -1.005,0.118 a 5.757,5.757 0 0 0 -0.788,0.197 3.424,3.424 0 0 0 -0.71,0.255 c -0.04,0.02 -0.098,0.04 -0.157,0.06 -0.099,0.078 -0.138,0.196 -0.138,0.333 v 8.375 H 50.693 V 17.85 h 2.03 v 0.394 z" />
  <path
     style="fill:#ffffff"
     id="path67"
     d="m 47.52,29.312 h -2.15 v -5.76 c 0,-0.512 -0.098,-1.003 -0.295,-1.475 a 3.988,3.988 0 0 0 -0.808,-1.219 3.778,3.778 0 0 0 -1.222,-0.806 3.817,3.817 0 0 0 -1.479,-0.295 c -0.532,0 -1.024,0.099 -1.498,0.295 a 3.911,3.911 0 0 0 -1.202,0.806 3.765,3.765 0 0 0 -0.808,1.22 3.788,3.788 0 0 0 -0.295,1.474 c 0,0.53 0.098,1.041 0.295,1.494 0.197,0.471 0.473,0.884 0.808,1.219 0.335,0.353 0.75,0.629 1.203,0.825 a 3.77,3.77 0 0 0 1.497,0.295 c 0.513,0 1.006,-0.098 1.459,-0.275 a 3.743,3.743 0 0 0 1.202,-0.787 v 2.537 a 5.307,5.307 0 0 1 -1.28,0.471 6.353,6.353 0 0 1 -1.4,0.158 5.787,5.787 0 0 1 -2.326,-0.472 6.057,6.057 0 0 1 -1.892,-1.278 6.016,6.016 0 0 1 -1.281,-1.907 c -0.316,-0.727 -0.453,-1.494 -0.453,-2.32 0,-0.825 0.157,-1.592 0.453,-2.32 a 5.932,5.932 0 0 1 1.28,-1.887 6.547,6.547 0 0 1 1.893,-1.278 5.786,5.786 0 0 1 2.326,-0.472 c 0.788,0 1.517,0.138 2.207,0.433 0.69,0.275 1.301,0.668 1.833,1.16 a 5.966,5.966 0 0 1 1.301,1.73 c 0.335,0.668 0.552,1.376 0.611,2.123 v 6.31 h 0.02 z" />
  <path
     style="fill:#ffffff"
     id="path65"
     d="m 30.313,17.85 h 2.129 v 13.409 c 0,0.668 -0.118,1.18 -0.335,1.533 -0.237,0.354 -0.473,0.61 -0.73,0.787 -0.315,0.177 -0.65,0.295 -1.064,0.314 h -3.33 v -2.064 h 2.897 c 0.216,0 0.355,-0.098 0.414,-0.295 a 0.59,0.59 0 0 0 0.02,-0.314 V 17.85 Z" />
  <path
     style="fill:#ffffff"
     id="path63"
     d="m 26.805,13.27 v 10.282 c 0,0.825 -0.158,1.592 -0.473,2.32 a 6.369,6.369 0 0 1 -1.281,1.906 c -0.532,0.55 -1.163,0.964 -1.892,1.278 a 5.642,5.642 0 0 1 -2.267,0.472 5.88,5.88 0 0 1 -2.345,-0.472 6.144,6.144 0 0 1 -1.912,-1.278 6.019,6.019 0 0 1 -1.281,-1.907 5.746,5.746 0 0 1 -0.473,-2.32 c 0,-0.825 0.157,-1.592 0.473,-2.32 a 6.27,6.27 0 0 1 1.28,-1.886 6.386,6.386 0 0 1 1.913,-1.278 5.882,5.882 0 0 1 2.345,-0.472 c 0.473,0 0.927,0.059 1.38,0.177 0.453,0.118 0.867,0.275 1.261,0.491 v 2.576 a 3.45,3.45 0 0 0 -1.202,-0.826 3.623,3.623 0 0 0 -1.439,-0.295 3.77,3.77 0 0 0 -1.498,0.295 3.531,3.531 0 0 0 -1.222,0.826 4.37,4.37 0 0 0 -0.847,1.219 3.808,3.808 0 0 0 -0.316,1.474 c 0,0.53 0.099,1.042 0.316,1.494 0.197,0.472 0.492,0.865 0.847,1.219 0.355,0.334 0.769,0.61 1.222,0.826 0.473,0.196 0.966,0.314 1.498,0.314 0.513,0 1.005,-0.098 1.478,-0.314 a 3.644,3.644 0 0 0 1.203,-0.826 c 0.335,-0.334 0.61,-0.747 0.808,-1.219 0.197,-0.472 0.295,-0.963 0.295,-1.494 V 13.27 Z" />
  <path
     style="fill:#ffffff"
     id="path12"
     d="m 11.905,29.312 h -2.13 v -5.76 C 9.775,23.04 9.677,22.549 9.48,22.077 A 3.99,3.99 0 0 0 8.672,20.858 3.778,3.778 0 0 0 7.45,20.052 3.816,3.816 0 0 0 5.972,19.757 c -0.532,0 -1.025,0.099 -1.498,0.295 a 3.91,3.91 0 0 0 -1.202,0.806 3.766,3.766 0 0 0 -0.808,1.22 3.788,3.788 0 0 0 -0.296,1.474 c 0,0.53 0.099,1.041 0.296,1.494 0.197,0.471 0.473,0.884 0.808,1.219 0.335,0.353 0.749,0.629 1.202,0.825 a 3.77,3.77 0 0 0 1.498,0.295 c 0.512,0 1.005,-0.098 1.458,-0.275 A 3.743,3.743 0 0 0 8.633,26.323 V 28.86 A 5.307,5.307 0 0 1 7.352,29.331 6.354,6.354 0 0 1 5.952,29.489 5.787,5.787 0 0 1 3.627,29.017 6.056,6.056 0 0 1 1.734,27.739 6.018,6.018 0 0 1 0.454,25.832 C 0.137,25.105 0,24.338 0,23.512 0,22.687 0.158,21.92 0.453,21.192 a 5.934,5.934 0 0 1 1.281,-1.887 6.546,6.546 0 0 1 1.893,-1.278 5.786,5.786 0 0 1 2.325,-0.472 c 0.789,0 1.518,0.138 2.208,0.433 0.69,0.275 1.3,0.668 1.833,1.16 a 5.969,5.969 0 0 1 1.3,1.73 c 0.336,0.668 0.552,1.376 0.612,2.123 v 6.31 z" />
  <path
     id="path45"
     d="m 129.6449,27.208 v 2.104 h -3.41 a 1.928,1.928 0 0 1 -1.025,-0.335 c -0.256,-0.176 -0.492,-0.432 -0.709,-0.786 -0.217,-0.354 -0.315,-0.884 -0.315,-1.573 V 13.27 h 2.069 v 4.58 h 2.641 v 2.104 h -2.641 v 6.625 c -0.02,0.098 0,0.216 0.039,0.315 0.04,0.078 0.079,0.137 0.158,0.196 0.059,0.06 0.178,0.099 0.316,0.099 h 2.877 v 0.02 z"
     style="fill:#ffffff" />
  <path
     id="path75"
     d="m 68.93328,29.312 h -2.128 v -5.76 c 0,-0.512 -0.099,-1.003 -0.296,-1.475 a 3.989,3.989 0 0 0 -0.808,-1.219 3.778,3.778 0 0 0 -1.222,-0.806 3.816,3.816 0 0 0 -1.478,-0.295 c -0.532,0 -1.025,0.099 -1.498,0.295 a 3.911,3.911 0 0 0 -1.202,0.806 3.765,3.765 0 0 0 -0.808,1.22 3.788,3.788 0 0 0 -0.296,1.474 c 0,0.53 0.099,1.041 0.296,1.494 0.197,0.471 0.473,0.884 0.808,1.219 0.335,0.353 0.749,0.629 1.202,0.825 a 3.77,3.77 0 0 0 1.498,0.295 c 0.512,0 1.005,-0.098 1.458,-0.275 a 3.744,3.744 0 0 0 1.203,-0.787 v 2.537 a 5.307,5.307 0 0 1 -1.281,0.471 6.354,6.354 0 0 1 -1.4,0.158 5.787,5.787 0 0 1 -2.325,-0.472 6.056,6.056 0 0 1 -1.893,-1.278 6.02,6.02 0 0 1 -1.279997,-1.907 c -0.316,-0.727 -0.454,-1.494 -0.454,-2.32 0,-0.825 0.158,-1.592 0.453,-2.32 a 5.935,5.935 0 0 1 1.280997,-1.887 6.546,6.546 0 0 1 1.893,-1.278 5.785,5.785 0 0 1 2.325,-0.472 c 0.789,0 1.518,0.138 2.208,0.433 0.69,0.275 1.3,0.668 1.833,1.16 a 5.968,5.968 0 0 1 1.3,1.73 c 0.335,0.668 0.552,1.376 0.611,2.123 v 6.31 z"
     style="fill:#ffffff" />
  <g
     transform="translate(23.036454,0.160482)"
     id="g274"
     style="fill:#ffffff">
    <path
       d="m 81.45,17.85 h 2.128 V 29.312 H 81.449 V 17.85 Z m 9.341,5.682 c 0,-1.16 -0.295,-2.084 -0.886,-2.772 -0.592,-0.688 -1.459,-1.022 -2.602,-1.022 -0.591,0 -1.084,0.098 -1.498,0.295 a 3.866,3.866 0 0 0 -1.084,0.766 v -2.457 c 0.158,-0.157 0.335,-0.275 0.572,-0.374 0.216,-0.098 0.453,-0.157 0.67,-0.216 0.236,-0.059 0.453,-0.098 0.65,-0.118 0.197,-0.02 0.375,-0.04 0.513,-0.04 0.906,0 1.714,0.139 2.444,0.414 0.729,0.275 1.32,0.668 1.833,1.18 0.492,0.51 0.867,1.14 1.143,1.867 a 7.39,7.39 0 0 1 0.394,2.457 h -0.02 v 5.78 h -2.109 v -5.76 z m -10.894174,5.619518 h -2.127997 v -5.76 c 0,-0.512 -0.099,-1.003 -0.296,-1.475 a 3.989,3.989 0 0 0 -0.808,-1.219 3.778,3.778 0 0 0 -1.222,-0.806 3.816,3.816 0 0 0 -1.478,-0.295 c -0.532,0 -1.025,0.099 -1.498,0.295 a 3.911,3.911 0 0 0 -1.202,0.806 3.765,3.765 0 0 0 -0.808,1.22 3.788,3.788 0 0 0 -0.296,1.474 c 0,0.53 0.099,1.041 0.296,1.494 0.197,0.471 0.473,0.884 0.808,1.219 0.335,0.353 0.749,0.629 1.202,0.825 a 3.77,3.77 0 0 0 1.498,0.295 c 0.512,0 1.005,-0.098 1.458,-0.275 a 3.744,3.744 0 0 0 1.203,-0.787 v 2.537 a 5.307,5.307 0 0 1 -1.281,0.471 6.354,6.354 0 0 1 -1.4,0.158 5.787,5.787 0 0 1 -2.325,-0.472 6.056,6.056 0 0 1 -1.893,-1.278 6.02,6.02 0 0 1 -1.28,-1.907 c -0.316,-0.727 -0.454,-1.494 -0.454,-2.32 0,-0.825 0.158,-1.592 0.453,-2.32 a 5.935,5.935 0 0 1 1.281,-1.887 6.546,6.546 0 0 1 1.893,-1.278 5.785,5.785 0 0 1 2.325,-0.472 c 0.789,0 1.518,0.138 2.208,0.433 0.69,0.275 1.3,0.668 1.833,1.16 a 5.968,5.968 0 0 1 1.299997,1.73 c 0.335,0.668 0.552,1.376 0.611,2.123 v 6.31 z M 61.07967,27.157882 a 3.93,3.93 0 0 0 1.872,-0.452 4.165,4.165 0 0 0 1.4,-1.219 h 2.306 a 6.8,6.8 0 0 1 -0.887,1.514 5.548,5.548 0 0 1 -1.281,1.16 6.446,6.446 0 0 1 -1.577,0.747 6.135,6.135 0 0 1 -1.813,0.275 6.126,6.126 0 0 1 -2.326,-0.452 c -0.729,-0.315 -1.36,-0.728 -1.892,-1.278 a 6.152,6.152 0 0 1 -1.281,-1.887 c -0.316,-0.728 -0.454,-1.494 -0.454,-2.32 0,-0.845 0.158,-1.632 0.454,-2.36 0.315,-0.727 0.729,-1.356 1.281,-1.886 a 6.543,6.543 0 0 1 1.892,-1.278 5.787,5.787 0 0 1 2.326,-0.472 c 0.63,0 1.222,0.098 1.813,0.275 a 5.584,5.584 0 0 1 1.577,0.767 c 0.473,0.334 0.906,0.727 1.281,1.18 0.374,0.451 0.67,0.963 0.887,1.513 h -2.306 a 3.99,3.99 0 0 0 -1.38,-1.238 c -0.571,-0.315 -1.202,-0.452 -1.892,-0.452 -0.552,0 -1.064,0.098 -1.537,0.314 a 3.869,3.869 0 0 0 -1.242,0.845 4.045,4.045 0 0 0 -0.848,1.259 4.049,4.049 0 0 0 -0.315,1.553 c 0,0.55 0.099,1.061 0.315,1.533 0.198,0.472 0.493,0.885 0.848,1.239 0.355,0.353 0.769,0.629 1.242,0.825 0.473,0.197 0.985,0.295 1.537,0.295 z"
       style="fill:#ffffff"
       id="path125" />
  </g>
</svg>
